<svg width="1603" height="882" viewBox="0 0 1603 882" fill="none" xmlns="http://www.w3.org/2000/svg">
<g filter="url(#filter0_d)">
<rect width="252.054" height="1.06628" transform="matrix(0.450999 -0.892524 0.93667 0.350214 1149.78 224.964)" fill="#B8B6B6" fill-opacity="0.29"/>
<rect width="230.994" height="0.956318" transform="matrix(-0.89978 0.405846 -0.528832 -0.867528 1446.75 115.002)" fill="#B8B6B6" fill-opacity="0.29"/>
<rect width="194.384" height="0.999181" transform="matrix(-0.922526 -0.440617 0.529087 -0.819663 1446.32 114.912)" fill="#B8B6B6" fill-opacity="0.29"/>
<rect width="230.994" height="0.956318" transform="matrix(0.89978 0.405846 0.528832 -0.867528 744.136 121.56)" fill="#B8B6B6" fill-opacity="0.29"/>
<rect width="194.384" height="0.999181" transform="matrix(0.922526 -0.440617 -0.529087 -0.819663 744.684 121.471)" fill="#B8B6B6" fill-opacity="0.29"/>
<rect width="252.054" height="1.06628" transform="matrix(0.450999 -0.892524 0.93667 0.350214 620.782 467.964)" fill="#B8B6B6" fill-opacity="0.29"/>
<rect width="230.994" height="0.956318" transform="matrix(-0.89978 0.405846 -0.528832 -0.867528 917.746 358.002)" fill="#B8B6B6" fill-opacity="0.29"/>
<rect width="194.384" height="0.999181" transform="matrix(-0.922526 -0.440617 0.529087 -0.819663 917.319 357.912)" fill="#B8B6B6" fill-opacity="0.29"/>
<rect width="230.994" height="0.956318" transform="matrix(0.89978 0.405846 0.528832 -0.867528 215.136 364.56)" fill="#B8B6B6" fill-opacity="0.29"/>
<rect width="194.384" height="0.999181" transform="matrix(0.922526 -0.440617 -0.529087 -0.819663 215.684 364.471)" fill="#B8B6B6" fill-opacity="0.29"/>
<rect width="252.054" height="1.06628" transform="matrix(0.450999 -0.892524 0.93667 0.350214 417.782 226.964)" fill="#B8B6B6" fill-opacity="0.29"/>
<rect width="230.994" height="0.956318" transform="matrix(-0.89978 0.405846 -0.528832 -0.867528 714.746 117.002)" fill="#B8B6B6" fill-opacity="0.29"/>
<rect width="194.384" height="0.999181" transform="matrix(-0.922526 -0.440617 0.529087 -0.819663 714.319 116.912)" fill="#B8B6B6" fill-opacity="0.29"/>
<rect width="230.994" height="0.956318" transform="matrix(0.89978 0.405846 0.528832 -0.867528 12.136 123.56)" fill="#B8B6B6" fill-opacity="0.29"/>
<rect width="194.384" height="0.999181" transform="matrix(0.922526 -0.440617 -0.529087 -0.819663 12.6843 123.471)" fill="#B8B6B6" fill-opacity="0.29"/>
<rect width="252.054" height="1.06628" transform="matrix(0.450999 -0.892524 0.93667 0.350214 1293.78 545.964)" fill="#B8B6B6" fill-opacity="0.29"/>
<rect width="230.994" height="0.956318" transform="matrix(-0.89978 0.405846 -0.528832 -0.867528 1590.75 436.002)" fill="#B8B6B6" fill-opacity="0.29"/>
<rect width="194.384" height="0.999181" transform="matrix(-0.922526 -0.440617 0.529087 -0.819663 1590.32 435.912)" fill="#B8B6B6" fill-opacity="0.29"/>
<rect width="230.994" height="0.956318" transform="matrix(0.89978 0.405846 0.528832 -0.867528 888.136 442.56)" fill="#B8B6B6" fill-opacity="0.29"/>
<rect width="194.384" height="0.999181" transform="matrix(0.922526 -0.440617 -0.529087 -0.819663 888.684 442.471)" fill="#B8B6B6" fill-opacity="0.29"/>
<rect width="252.054" height="1.06628" transform="matrix(0.450999 -0.892524 0.93667 0.350214 608.782 760.964)" fill="#B8B6B6" fill-opacity="0.29"/>
<rect width="230.994" height="0.956318" transform="matrix(-0.89978 0.405846 -0.528832 -0.867528 905.746 651.002)" fill="#B8B6B6" fill-opacity="0.29"/>
<rect width="194.384" height="0.999181" transform="matrix(-0.922526 -0.440617 0.529087 -0.819663 905.319 650.912)" fill="#B8B6B6" fill-opacity="0.29"/>
<rect width="230.994" height="0.956318" transform="matrix(0.89978 0.405846 0.528832 -0.867528 203.136 657.56)" fill="#B8B6B6" fill-opacity="0.29"/>
<rect width="194.384" height="0.999181" transform="matrix(0.922526 -0.440617 -0.529087 -0.819663 203.684 657.471)" fill="#B8B6B6" fill-opacity="0.29"/>
<rect width="252.054" height="1.06628" transform="matrix(0.450999 -0.892524 0.93667 0.350214 1231.78 872.964)" fill="#B8B6B6" fill-opacity="0.29"/>
<rect width="230.994" height="0.956318" transform="matrix(-0.89978 0.405846 -0.528832 -0.867528 1528.75 763.002)" fill="#B8B6B6" fill-opacity="0.29"/>
<rect width="194.384" height="0.999181" transform="matrix(-0.922526 -0.440617 0.529087 -0.819663 1528.32 762.912)" fill="#B8B6B6" fill-opacity="0.29"/>
<rect width="230.994" height="0.956318" transform="matrix(0.89978 0.405846 0.528832 -0.867528 826.136 769.56)" fill="#B8B6B6" fill-opacity="0.29"/>
<rect width="194.384" height="0.999181" transform="matrix(0.922526 -0.440617 -0.529087 -0.819663 826.684 769.471)" fill="#B8B6B6" fill-opacity="0.29"/>
</g>
<defs>
<filter id="filter0_d" x="9.13605" y="0" width="1586.71" height="881.337" filterUnits="userSpaceOnUse" color-interpolation-filters="sRGB">
<feFlood flood-opacity="0" result="BackgroundImageFix"/>
<feColorMatrix in="SourceAlpha" type="matrix" values="0 0 0 0 0 0 0 0 0 0 0 0 0 0 0 0 0 0 127 0"/>
<feOffset dx="1" dy="4"/>
<feGaussianBlur stdDeviation="2"/>
<feColorMatrix type="matrix" values="0 0 0 0 0 0 0 0 0 0 0 0 0 0 0 0 0 0 0.25 0"/>
<feBlend mode="normal" in2="BackgroundImageFix" result="effect1_dropShadow"/>
<feBlend mode="normal" in="SourceGraphic" in2="effect1_dropShadow" result="shape"/>
</filter>
</defs>
</svg>
